<svg id="head" enable-background="new 0 0 300 300" height="512" viewBox="0 0 300 300" width="512" xmlns="http://www.w3.org/2000/svg"><g><circle cx="182.173" cy="173.941" fill="#edebdc" r="86"/><g><path d="m199.463 267.4.001-27.934v-23.943c0-8.43 3.017-16.544 8.434-22.842 14.85-17.264 23.503-40.357 22.312-65.559-2.165-45.825-37.684-83.572-81.908-86.927-50.707-3.847-89.193 36.44-91.303 87.547l-.097-.01-20.676 40.692c-1.386 4.014.943 8.376 4.965 9.301l18.108 4.162 4.518 51.249c.373 3.6 3.309 6.331 6.809 6.331l36.272-4v31.933" fill="#ffded5"/><path d="m199.464 271.4c-2.209 0-4-1.791-4-4v-51.877c0-9.365 3.34-18.402 9.404-25.451 14.861-17.277 22.443-39.566 21.346-62.76-2.086-44.166-35.711-79.904-78.215-83.129-21.502-1.623-42.002 5.201-57.779 19.232-17.524 15.585-28.176 39.091-29.225 64.491-.035.869-.352 1.693-.893 2.359l-20.16 39.676c-.225.826-.121 1.709.293 2.455.238.43.795 1.188 1.852 1.43l18.109 4.162c1.689.389 2.936 1.82 3.088 3.547l4.518 51.25c.15 1.443 1.279 2.588 2.654 2.676l36.006-3.971c1.107-.131 2.258.236 3.105.998.848.758 1.332 1.842 1.332 2.979v31.933c0 2.209-1.791 4-4 4s-4-1.791-4-4v-27.469l-31.836 3.512c-.145.016-.291.023-.438.023-5.564 0-10.201-4.264-10.787-9.918l-4.268-48.414-15.277-3.512c-2.979-.684-5.551-2.635-7.057-5.348-1.547-2.793-1.836-6.131-.791-9.158.061-.172.133-.342.215-.506l20.393-40.133c1.396-27.135 12.969-52.248 31.85-69.041 17.412-15.486 40.033-23.027 63.701-21.23 46.525 3.529 83.324 42.533 85.602 90.727 1.193 25.244-7.072 49.521-23.273 68.357-4.816 5.596-7.469 12.781-7.469 20.232v51.878c0 2.209-1.791 4-4 4z" fill="#4c241d"/></g><g fill="#4c241d"><path d="m96.173 131.941h-24c-2.209 0-4-1.791-4-4s1.791-4 4-4h24c2.209 0 4 1.791 4 4s-1.791 4-4 4z"/><circle cx="86.173" cy="133.941" r="6"/><path d="m233.842 55.029c-.902 0-1.809-.303-2.557-.926-1.699-1.414-1.93-3.936-.516-5.633l10.236-12.297c1.414-1.699 3.938-1.93 5.633-.516 1.699 1.414 1.93 3.936.516 5.633l-10.236 12.297c-.79.952-1.929 1.442-3.076 1.442z"/><path d="m237.944 68.855c-2.045 0-3.789-1.561-3.979-3.637-.201-2.199 1.418-4.146 3.619-4.346l16.9-1.545c2.223-.217 4.145 1.42 4.346 3.619s-1.418 4.146-3.619 4.348l-16.9 1.545c-.123.01-.246.016-.367.016z"/><path d="m219.499 53.502c-2.045 0-3.789-1.561-3.98-3.637l-1.545-16.9c-.199-2.199 1.42-4.146 3.621-4.346 2.221-.215 4.145 1.42 4.346 3.619l1.545 16.9c.201 2.199-1.418 4.146-3.619 4.346-.124.012-.247.018-.368.018z"/></g><g><g><path d="m170.965 144.387c4.821 4.484 12.25 4.484 17.071 0 14.159-13.17 40.96-40.524 40.96-58.87 0-14.126-12.311-25.576-27.498-25.576-9.037 0-16.985 4.11-21.998 10.37-5.012-6.26-12.961-10.37-21.998-10.37-15.186 0-27.497 11.45-27.497 25.576-.001 18.346 26.801 45.7 40.96 58.87z" fill="#e66353"/><path d="m179.499 151.718c-4.051 0-8.102-1.467-11.26-4.402-15.773-14.674-42.234-42.213-42.234-61.799 0-16.309 14.129-29.576 31.496-29.576 8.34 0 16.139 3.055 22 8.508 5.859-5.453 13.658-8.508 21.998-8.508 17.367 0 31.498 13.268 31.498 29.576 0 19.586-26.463 47.125-42.236 61.799-3.159 2.936-7.21 4.402-11.262 4.402zm-5.811-10.261c3.314 3.084 8.312 3.08 11.623 0 25.221-23.459 39.686-43.85 39.686-55.939 0-11.896-10.541-21.576-23.498-21.576-7.484 0-14.363 3.232-18.875 8.871-1.52 1.895-4.727 1.898-6.246 0-4.514-5.637-11.395-8.871-18.877-8.871-12.955 0-23.496 9.68-23.496 21.576 0 12.091 14.464 32.48 39.683 55.939z" fill="#4c241d"/></g></g><path d="m216.639 91.791c-2.209 0-4-1.791-4-4 0-6.686-5.439-12.123-12.125-12.123-2.209 0-4-1.791-4-4s1.791-4 4-4c11.098 0 20.125 9.027 20.125 20.123 0 2.209-1.791 4-4 4z" fill="#fff"/></g></svg>